/* XPM */
static const char * Font5x5_xpm[] = {
"201 5 4 1",
" 	c None",
".	c #000000",
"+	c #FFFFFF",
"@	c #FF0000",
"....+...+++..++...++...+...+....+.++.+...+...+.++.+.+++.+++.+.+++.+....+...+++..++...+++...+...+.++.+.+++.+.+++.+.+.+.+.+...++..++++.+++..++....+.++.+....+....+....+....+....+++++++++++++++++++++++++++",
".++.+.++.+.++.+.++.+.+++.+++.++++.++.++.++++.+.+.++.+++..+..+..++.+.++.+.++.+.++.+.++.+.+++++.++.++.+.+++.+.+++.+.+.+.+.+++.+.++.++..++.++.++++.+.++.+.++++.+++++++.+.++.+.++.+++++++++++++++++++++++++++",
"....+...++.++++.++.+...+...+.+..+....++.++++.+..+++.+++.+.+.+.+.+.+.++.+...++.++.+...++....++.++.++.++.+.++.+.+.++.+++.+++.++.++.+++.++++.+++...+....+....+....+++.++....+....+++++++++++++++++++++++++++",
".++.+.++.+.++.+.++.+.+++.+++.++.+.++.++.++.+.+.+.++.+++.+++.+.++..+.++.+.++++.+..+.+.+++++.++.++.++.++.+.++.+.+.+.+.++.++.+++.++.+++.+++.++++++.++++.++++.+.++.++.+++.++.++++.+++++++++++++++++++++++++++",
".++.+...+++..++...++...+.+++....+.++.+...++.++.++.+...+.+++.+.+++.+....+.+++++...+.++.+...+++.+++..++++.+++..+..+.+.++.++...++..++@...+....+....++++.+....+....++.+++....+....+++++++++++++++++++++++++++"};
