/* XPM */
static const char * Font5x5_xpm[] = {
"250 5 3 1",
" 	c #000000",
".	c #FFFFFF",
"+	c #FF0000",
"    .   ...  ..   ..   .   .    . .. .   .   . .. . ... ... . ... ..  ..   ...  ..   ...   .   . .. . ... . ... . . . . .   .    ... ...  ..    . .. .    .    .    .    .    ...................... ..  ... . .. . + ....... . ... ... . ...  .  ........",
" .. . .. . .. . .. . ... ... .... .. .. .... . . .. ...  .  .  .. . .. . .. . .. . .. . ..... .. .. . ... . ... . . . . ... . .. ..  .. .. .... . .. . .... ....... . .. . .. ..... ........... .. . . .. . ... . . . .   ... .. . ... ... .. ... ........",
"    .   .. .... .. .   .   . .  .    .. .... .  ... ... . . . . . . .. .   .. .. .   ..    .. .. .. .. . .. . . .. ... ... .. .. ... .... ...   .    .    .    ... ..    .    .  .   ............... ... .. ... ............ ..     . ..... . ... ........",
" .. . .. . .. . .. . ... ... .. . .. .. .. . . . .. ... ... . ..  . .. . .... .  . . ..... .. .. .. .. . .. . . . . .. .. ... .. ... ... ...... .... .... . .. .. ... .. .... ..... ......... . .. ........ ... .......   . .... . ... ... .. ... ........",
" .. .   ...  ..   ..   . ...    . .. .   .. .. .. .   . ... . ... ..  .. .....   . .. .   ... ...  .... ...  .  . . .. ..   .    .+   .    .    .... .    .    .. ...    .    ........   . . .... .. ... ... . ............ ... ... ... . ...  .  ........"};
